<svg width="16" height="8" viewBox="0 0 16 8" fill="none" xmlns="http://www.w3.org/2000/svg">
<path d="M15.7998 5.59961C15.9102 5.59961 15.9999 5.68944 16 5.7998V7C16 7.11046 15.9103 7.2002 15.7998 7.2002H0.200195C0.0897384 7.2002 0 7.11046 0 7V5.7998C0.00010884 5.68944 0.0898056 5.59961 0.200195 5.59961H15.7998ZM15.7998 0C15.9103 0 16 0.0897384 16 0.200195V1.40039C15.9998 1.51067 15.9101 1.59961 15.7998 1.59961H0.200195C0.0898684 1.59961 0.000210567 1.51067 0 1.40039V0.200195C0 0.0897384 0.0897384 0 0.200195 0H15.7998Z" fill="black"/>
</svg>
